<?xml version="1.0" encoding="UTF-8" standalone="no"?>
<svg xmlns="http://www.w3.org/2000/svg" width="61.400002mm" height="61.400002mm" viewBox="0 0 61.400002 61.400002">
  <g transform="translate(232.83333 -324.04641)">
    <rect width="60.400002" height="60.400002" x="-232.33333" y="324.54642" paint-order="stroke fill markers" rx="3.8" ry="3.8"/>
    <rect width="60" height="60" x="-232.13333" y="324.7464" fill="#fff" paint-order="stroke fill markers" rx="3.5999999" ry="3.5999999"/>
    <rect width="57" height="57" x="-230.63333" y="326.2464" fill="#003c82" paint-order="stroke fill markers" rx="2.0999999" ry="2.0999999"/>
    <path fill="#fff" d="M-200.78695 339.94345h-9.52452V353.14h9.74514c2.26046 0 3.94395-.69385 5.05983-2.07854 1.11061-1.38455 1.66861-2.88981 1.66861-4.51946 0-2.46854-.87472-4.28493-2.61889-5.44868-1.12194-.7661-2.56388-1.14987-4.33017-1.14987zm-9.6418 35.60295h-6.30458l.0586-41.57578 15.56859-.0242c1.58266 0 3.11095.16864 4.57684.50713 1.46604.33887 2.99064 1.13587 4.57382 2.38637 1.23212.9667 2.27902 2.2925 3.13519 3.98409.85708 1.69147 1.287 3.65341 1.287 5.88712 0 2.95188-1.08034 5.76231-3.24153 8.42828-2.16174 2.66504-5.32047 3.99808-9.47516 3.99808h-10.06147z"/>
  </g>
</svg>